<?xml version="1.0" encoding="utf-8"?>
<svg contentScriptType="text/ecmascript" xmlns:xlink="http://www.w3.org/1999/xlink" zoomAndPan="magnify" contentStyleType="text/css" viewBox="0 0 24 120" xmlns:cacoo="http://cacoo.com/" preserveAspectRatio="xMidYMin meet" xmlns="http://www.w3.org/2000/svg" version="1.1"><g><path fill="#bbbbbb" fill-opacity="1.0" d="M8.654262031237012 19.318127070635327 Q9.89976940086126 19.318127070635327 11.055958449565967 19.066574665143538 Q12.159278816134108 18.82652515192959 13.161802149098795 18.361832923127434 Q14.119839425514828 17.917759293516227 14.964280969629193 17.278769560913684 Q15.773799486595777 16.666205926336044 16.45588275095087 15.892256691118739 Q17.765746307975213 14.405974420462531 18.47640215885306 12.508366482961286 Q19.163265289299908 10.674295923883736 19.163265289299908 8.809123812572427 Q19.163265289299908 8.650660645581418 19.162364049889646 8.571428512549689 Q19.160864915065737 8.439376056569257 19.156061968452494 8.333733762063178 Q20.238657125801893 7.554264984994225 21.0 6.417767467867586 Q20.008805905865817 6.859494028258526 18.87515004056264 7.00120073665331 Q20.068727335923935 6.291809918167186 20.50300163555719 4.955582360711456 Q19.42243096966354 5.599559409330987 18.15486191871947 5.848739741704234 Q17.058007395383758 4.6818729293646735 15.460984782654988 4.6818729293646735 Q13.932172804413874 4.6818729293646735 12.849039101563225 5.765005807910985 Q11.765906497785025 6.848139510761635 11.765906497785025 8.376950939466523 Q11.765906497785025 8.774911335764571 11.859544173439126 9.219687822208545 Q9.596042927022275 9.108106689710551 7.585534970081188 8.06992834734536 Q5.637762618210394 7.064144615953174 4.2460989453712905 5.358943599036388 Q3.7490994818560313 6.217395019690569 3.7490994818560313 7.217286623670035 Q3.7490994818560313 8.161592088876493 4.200179698345828 8.98739446328514 Q4.636354294247798 9.785908517330654 5.391356619472953 10.292916684125888 Q4.499500540262802 10.261064465407724 3.7202883966112847 9.831932176239015 Q3.7202883966112847 9.857142150596282 3.7202883966112847 9.882352124953545 Q3.7202883966112847 11.211236779360515 4.568427769988865 12.236793373692189 Q5.405806124993388 13.249338049270044 6.680672467479477 13.505401048102964 Q6.216084101023991 13.63505312984923 5.708283502991193 13.63505312984923 Q5.351743850174443 13.63505312984923 5.016807015928994 13.570227638512321 Q5.371617827779469 14.683786964039037 6.31242549490889 15.39255680659004 Q7.268804820531773 16.11305704941636 8.466986679928807 16.134452692830543 Q7.498651644178041 16.893715022877878 6.345738380915156 17.299517850653913 Q5.153721768435052 17.71908656088552 3.8787515636022922 17.71908656088552 Q3.403359864484367 17.71908656088552 3.0 17.66866661217099 Q4.2454966536678445 18.462257371169816 5.656962864402623 18.882352537105714 Q7.121108716812304 19.318127070635327 8.654262031237012 19.318127070635327" stroke="none"/><path fill="#91CC41" fill-opacity="1.0" d="M8.654262031237012 43.31812707063533 Q9.89976940086126 43.31812707063533 11.055958449565967 43.066574665143534 Q12.159278816134108 42.82652515192959 13.161802149098795 42.36183292312744 Q14.119839425514828 41.91775929351623 14.964280969629193 41.27876956091369 Q15.773799486595777 40.66620592633604 16.45588275095087 39.89225669111874 Q17.765746307975213 38.40597442046253 18.47640215885306 36.508366482961286 Q19.163265289299908 34.67429592388373 19.163265289299908 32.80912381257242 Q19.163265289299908 32.65066064558142 19.162364049889646 32.57142851254969 Q19.160864915065737 32.43937605656926 19.156061968452494 32.333733762063176 Q20.238657125801893 31.554264984994223 21.0 30.417767467867584 Q20.008805905865817 30.859494028258524 18.87515004056264 31.00120073665331 Q20.068727335923935 30.291809918167186 20.50300163555719 28.955582360711457 Q19.42243096966354 29.599559409330986 18.15486191871947 29.848739741704232 Q17.058007395383758 28.681872929364673 15.460984782654988 28.681872929364673 Q13.932172804413874 28.681872929364673 12.849039101563225 29.765005807910985 Q11.765906497785025 30.848139510761634 11.765906497785025 32.376950939466525 Q11.765906497785025 32.77491133576457 11.859544173439126 33.21968782220854 Q9.596042927022275 33.10810668971055 7.585534970081188 32.06992834734536 Q5.637762618210394 31.064144615953172 4.2460989453712905 29.358943599036387 Q3.7490994818560313 30.217395019690567 3.7490994818560313 31.217286623670034 Q3.7490994818560313 32.16159208887649 4.200179698345828 32.98739446328514 Q4.636354294247798 33.785908517330654 5.391356619472953 34.292916684125885 Q4.499500540262802 34.26106446540772 3.7202883966112847 33.831932176239015 Q3.7202883966112847 33.85714215059628 3.7202883966112847 33.88235212495354 Q3.7202883966112847 35.21123677936052 4.568427769988865 36.23679337369219 Q5.405806124993388 37.249338049270044 6.680672467479477 37.50540104810297 Q6.216084101023991 37.635053129849226 5.708283502991193 37.635053129849226 Q5.351743850174443 37.635053129849226 5.016807015928994 37.57022763851232 Q5.371617827779469 38.68378696403904 6.31242549490889 39.392556806590036 Q7.268804820531773 40.113057049416355 8.466986679928807 40.13445269283054 Q7.498651644178041 40.89371502287788 6.345738380915156 41.29951785065391 Q5.153721768435052 41.719086560885515 3.8787515636022922 41.719086560885515 Q3.403359864484367 41.719086560885515 3.0 41.668666612170995 Q4.2454966536678445 42.46225737116981 5.656962864402623 42.88235253710571 Q7.121108716812304 43.31812707063533 8.654262031237012 43.31812707063533" stroke="none"/><path fill="#78B2F2" fill-opacity="1.0" d="M8.654262031237012 67.31812707063533 Q9.89976940086126 67.31812707063533 11.055958449565967 67.06657466514353 Q12.159278816134108 66.82652515192959 13.161802149098795 66.36183292312744 Q14.119839425514828 65.91775929351623 14.964280969629193 65.27876956091369 Q15.773799486595777 64.66620592633605 16.45588275095087 63.89225669111874 Q17.765746307975213 62.40597442046253 18.47640215885306 60.508366482961286 Q19.163265289299908 58.67429592388373 19.163265289299908 56.80912381257242 Q19.163265289299908 56.65066064558142 19.162364049889646 56.57142851254969 Q19.160864915065737 56.43937605656926 19.156061968452494 56.333733762063176 Q20.238657125801893 55.55426498499423 21.0 54.417767467867584 Q20.008805905865817 54.859494028258524 18.87515004056264 55.00120073665331 Q20.068727335923935 54.29180991816718 20.50300163555719 52.95558236071145 Q19.42243096966354 53.599559409330986 18.15486191871947 53.848739741704236 Q17.058007395383758 52.68187292936467 15.460984782654988 52.68187292936467 Q13.932172804413874 52.68187292936467 12.849039101563225 53.76500580791098 Q11.765906497785025 54.848139510761634 11.765906497785025 56.376950939466525 Q11.765906497785025 56.77491133576457 11.859544173439126 57.21968782220854 Q9.596042927022275 57.10810668971055 7.585534970081188 56.06992834734536 Q5.637762618210394 55.064144615953175 4.2460989453712905 53.35894359903639 Q3.7490994818560313 54.21739501969057 3.7490994818560313 55.217286623670034 Q3.7490994818560313 56.16159208887649 4.200179698345828 56.98739446328514 Q4.636354294247798 57.785908517330654 5.391356619472953 58.292916684125885 Q4.499500540262802 58.26106446540772 3.7202883966112847 57.831932176239015 Q3.7202883966112847 57.85714215059628 3.7202883966112847 57.88235212495354 Q3.7202883966112847 59.21123677936052 4.568427769988865 60.23679337369219 Q5.405806124993388 61.249338049270044 6.680672467479477 61.50540104810297 Q6.216084101023991 61.635053129849226 5.708283502991193 61.635053129849226 Q5.351743850174443 61.635053129849226 5.016807015928994 61.57022763851232 Q5.371617827779469 62.68378696403904 6.31242549490889 63.392556806590036 Q7.268804820531773 64.11305704941635 8.466986679928807 64.13445269283054 Q7.498651644178041 64.89371502287787 6.345738380915156 65.29951785065391 Q5.153721768435052 65.71908656088551 3.8787515636022922 65.71908656088551 Q3.403359864484367 65.71908656088551 3.0 65.668666612171 Q4.2454966536678445 66.46225737116981 5.656962864402623 66.88235253710572 Q7.121108716812304 67.31812707063533 8.654262031237012 67.31812707063533" stroke="none"/><path fill="#E3B551" fill-opacity="1.0" d="M8.654262031237012 91.31812707063533 Q9.89976940086126 91.31812707063533 11.055958449565967 91.06657466514353 Q12.159278816134108 90.82652515192959 13.161802149098795 90.36183292312744 Q14.119839425514828 89.91775929351623 14.964280969629193 89.27876956091369 Q15.773799486595777 88.66620592633605 16.45588275095087 87.89225669111875 Q17.765746307975213 86.40597442046253 18.47640215885306 84.50836648296128 Q19.163265289299908 82.67429592388373 19.163265289299908 80.80912381257242 Q19.163265289299908 80.65066064558141 19.162364049889646 80.57142851254969 Q19.160864915065737 80.43937605656926 19.156061968452494 80.33373376206318 Q20.238657125801893 79.55426498499422 21.0 78.41776746786759 Q20.008805905865817 78.85949402825852 18.87515004056264 79.0012007366533 Q20.068727335923935 78.29180991816719 20.50300163555719 76.95558236071146 Q19.42243096966354 77.59955940933098 18.15486191871947 77.84873974170424 Q17.058007395383758 76.68187292936467 15.460984782654988 76.68187292936467 Q13.932172804413874 76.68187292936467 12.849039101563225 77.76500580791098 Q11.765906497785025 78.84813951076164 11.765906497785025 80.37695093946652 Q11.765906497785025 80.77491133576457 11.859544173439126 81.21968782220854 Q9.596042927022275 81.10810668971055 7.585534970081188 80.06992834734535 Q5.637762618210394 79.06414461595317 4.2460989453712905 77.35894359903638 Q3.7490994818560313 78.21739501969057 3.7490994818560313 79.21728662367003 Q3.7490994818560313 80.16159208887649 4.200179698345828 80.98739446328514 Q4.636354294247798 81.78590851733065 5.391356619472953 82.29291668412588 Q4.499500540262802 82.26106446540773 3.7202883966112847 81.83193217623901 Q3.7202883966112847 81.85714215059627 3.7202883966112847 81.88235212495354 Q3.7202883966112847 83.21123677936052 4.568427769988865 84.2367933736922 Q5.405806124993388 85.24933804927005 6.680672467479477 85.50540104810297 Q6.216084101023991 85.63505312984923 5.708283502991193 85.63505312984923 Q5.351743850174443 85.63505312984923 5.016807015928994 85.57022763851232 Q5.371617827779469 86.68378696403903 6.31242549490889 87.39255680659004 Q7.268804820531773 88.11305704941635 8.466986679928807 88.13445269283054 Q7.498651644178041 88.89371502287787 6.345738380915156 89.29951785065391 Q5.153721768435052 89.71908656088551 3.8787515636022922 89.71908656088551 Q3.403359864484367 89.71908656088551 3.0 89.668666612171 Q4.2454966536678445 90.46225737116981 5.656962864402623 90.88235253710572 Q7.121108716812304 91.31812707063533 8.654262031237012 91.31812707063533" stroke="none"/><path fill="#F74687" fill-opacity="1.0" d="M8.654262031237012 115.31812707063533 Q9.89976940086126 115.31812707063533 11.055958449565967 115.06657466514353 Q12.159278816134108 114.82652515192959 13.161802149098795 114.36183292312744 Q14.119839425514828 113.91775929351623 14.964280969629193 113.27876956091369 Q15.773799486595777 112.66620592633605 16.45588275095087 111.89225669111875 Q17.765746307975213 110.40597442046253 18.47640215885306 108.50836648296128 Q19.163265289299908 106.67429592388373 19.163265289299908 104.80912381257242 Q19.163265289299908 104.65066064558141 19.162364049889646 104.57142851254969 Q19.160864915065737 104.43937605656926 19.156061968452494 104.33373376206318 Q20.238657125801893 103.55426498499422 21.0 102.41776746786759 Q20.008805905865817 102.85949402825852 18.87515004056264 103.0012007366533 Q20.068727335923935 102.29180991816719 20.50300163555719 100.95558236071146 Q19.42243096966354 101.59955940933098 18.15486191871947 101.84873974170424 Q17.058007395383758 100.68187292936467 15.460984782654988 100.68187292936467 Q13.932172804413874 100.68187292936467 12.849039101563225 101.76500580791098 Q11.765906497785025 102.84813951076164 11.765906497785025 104.37695093946652 Q11.765906497785025 104.77491133576457 11.859544173439126 105.21968782220854 Q9.596042927022275 105.10810668971055 7.585534970081188 104.06992834734535 Q5.637762618210394 103.06414461595317 4.2460989453712905 101.35894359903638 Q3.7490994818560313 102.21739501969057 3.7490994818560313 103.21728662367003 Q3.7490994818560313 104.16159208887649 4.200179698345828 104.98739446328514 Q4.636354294247798 105.78590851733065 5.391356619472953 106.29291668412588 Q4.499500540262802 106.26106446540773 3.7202883966112847 105.83193217623901 Q3.7202883966112847 105.85714215059627 3.7202883966112847 105.88235212495354 Q3.7202883966112847 107.21123677936052 4.568427769988865 108.2367933736922 Q5.405806124993388 109.24933804927005 6.680672467479477 109.50540104810297 Q6.216084101023991 109.63505312984923 5.708283502991193 109.63505312984923 Q5.351743850174443 109.63505312984923 5.016807015928994 109.57022763851232 Q5.371617827779469 110.68378696403903 6.31242549490889 111.39255680659004 Q7.268804820531773 112.11305704941635 8.466986679928807 112.13445269283054 Q7.498651644178041 112.89371502287787 6.345738380915156 113.29951785065391 Q5.153721768435052 113.71908656088551 3.8787515636022922 113.71908656088551 Q3.403359864484367 113.71908656088551 3.0 113.668666612171 Q4.2454966536678445 114.46225737116981 5.656962864402623 114.88235253710572 Q7.121108716812304 115.31812707063533 8.654262031237012 115.31812707063533" stroke="none"/></g></svg>